<?xml version="1.0" encoding="UTF-8" standalone="no"?>
<svg xmlns:rdf="http://www.w3.org/1999/02/22-rdf-syntax-ns#" xmlns="http://www.w3.org/2000/svg" viewBox="0 0 512 512" version="1.1" xmlns:cc="http://creativecommons.org/ns#" xmlns:dc="http://purl.org/dc/elements/1.1/">
 <title>Felicity</title>
 <metadata>
  <rdf:RDF>
   <cc:Work rdf:about="">
    <dc:format>image/svg+xml</dc:format>
    <dc:type rdf:resource="http://purl.org/dc/dcmitype/StillImage"/>
    <dc:title>Felicity</dc:title>
    <dc:creator>
     <cc:Agent>
      <dc:title>Lazy Chicken Farm</dc:title>
     </cc:Agent>
    </dc:creator>
   </cc:Work>
  </rdf:RDF>
 </metadata>
 <path fill="#005c60" d="m86.922 494.98c-2.0814-9.2084-3.6269-22.954-4.0338-32.067-1.2186-27.295-1.419-32.794-2.9275-50.254-0.45703-5.2914-0.31892-7.3278-0.86765-11.259-1.19-8.528-1.1417-11.737-2.4158-19.358-3.0057-17.976-0.7667-24.234-2.4504-34.914-1.5068-9.5575-2.8138-17.531-4.7689-26.143-0.47813-2.1061-1.3287-5.8298-1.6794-8.2448-0.351-2.4176 0.31902-1.998-1.2221-1.4914-3.4707 1.1407-5.4031 1.9501-6.8247 2.598-4.6036 2.0976-5.0155 2.6715-8.6974 6.3572-1.6391 1.6408-1.7208 1.5537-2.746 3.0128-0.66082 0.94104-1.314 1.2589-1.8676 0.055-0.90775-1.9666-1.1908-2.8841-1.4233-5.2211-0.70743-7.111-0.17361-13.884 0.12116-19.964 0.23202-4.7834 0.72266-6.9181 1.586-11.654 1.5599-8.5574 3.1745-13.996 6.5682-21.282 1.0513-2.257 1.9256-4.2404 1.9256-4.4158 0-0.17531-0.47717-0.60481-0.95742-1.0717-1.377-1.3394-2.0242-2.9702-2.0015-4.8351 0.08013-6.5791-0.19973-14.167 2.1432-20.28 0.72439-1.8901 0.7315-5.0752-0.43273-6.4608-2.401-2.8575-6.7366-1.4624-10.544-2.0298 1.685-2.3837 6.0897-3.1936-2.5306-4.4203-3.4634-0.49287-6.4812-1.5338-8.5107-3.281 1.9508-0.45877 4.8254-1.558 6.438-2.7626 3.8853-2.9022 3.6973-4.849-0.89965-8.348-0.76912-0.58542-2.9486-1.3769-5.9035-2.8916 2.1152-0.6672 4.7001-1.2324 7.4425-1.2171 4.8892 0.0254 8.3346-0.22227 7.6869-3.0279-0.54821-2.3744-3.194-5.9934-6.991-8.843 3.1231-0.46887 4.182 0.47545 5.7576 0.4512 1.4258-0.0202 2.9037 0.7094 4.2719 0.0353 3.3549-1.637 2.3248-1.806 3.8854-6.0932 1.4517-3.9881 1.407-8.7177 1.4454-12.91 0.07842-8.5559 0.0283-9.2122-2.3952-18.292-1.2375-4.6363-1.8492-5.1466-3.1067-8.2201-1.9025-4.6493-5.1312-6.284-5.3516-7.8541 1.3358-0.65967 3.3278 0.52735 3.9115 0.79351 4.4656 2.0381 8.1757 7.7961 10.587 11.848 1.5912-5.9442-0.7326-12.305-1.8327-16.722-0.96696-3.8835-1.0353-5.365-2.2704-9.2363-1.5311-4.7989-1.8504-4.3052 2.73-0.23828 3.1873 2.8301 6.5606 10.285 7.1407 12.413 2.2231-6.3222 1.4569-4.0162 2.2231-6.3222 2.4696-7.4316 0.94132-8.1284-1.0364-12.59-1.2908-2.9118-1.7419-4.1173-2.031-5.5154-0.9702-4.6929-0.75439-3.4983 1.859-0.85706 1.7581 1.7768 3.1133 5.3001 6.6605 7.2928 4.0504-8.0213 3.6033-8.1045 2.1483-12.673-0.71075-2.2318-1.2513-3.7619-2.1208-5.8271-0.69387-1.648-1.1454-2.0453-1.7732-3.0154-0.48884-0.75598-1.4322-1.5578 1.1172-0.12462 3.0872 1.7355 5.673 4.3182 7.2487 7.2102 0.38663 0.7096 0.13153 1.2022 3.6386-5.4524 2.1613-4.101 3.6512-6.7929 8.5969-14.972 4.2316-6.9983 7.4764-11.555 13.277-17.502 2.7649-2.8345 8.2693-7.2139 10.574-9.1435 4.8567-4.0663 11.487-9.0562 17.746-9.5182 2.9888-0.22062-3.6484 1.7832-7.6054 5.8303-4.2157 4.3116-4.0281 3.7793 1.5144 1.3149 4.3481-1.9333 9.7923-3.5034 14.903-4.8664 9.4135-2.5106 17.092-4.5303 25.009-6.0392 14.943-2.8476 30.319-2.97 44.534-2.5407 17.426 0.52663 27.99 1.7632 43.504 5.0982 7.8792 1.6939 12.349 3.9571 19.035 5.6829 4.9102 1.2672 9.472 1.5802 13.131 3.3901-6.172 2.4833-13.53 3.6872-17.972 4.4548-6.0121 1.0383-9.6431 1.1723-13.483 1.7242 4.7468 1.1664 10.174 2.1688 14.205 3.5835 1.4849 0.52119 8.6634 3.7307 13.751 6.6759 5.4298 3.143 14.949 12.044 18.406 17.579 2.1226 3.3976 3.7278 5.3513 4.6137 9.4187 0.28562 1.311 0.77836 3.5498-0.0274 2.8917-2.2006-1.7981-4.7686-4.2561-6.6618-5.1342-2.6911-1.2479-8.0125-1.7204-8.0125-1.7204s2.9337 2.0549 4.0507 3.384c2.6022 3.0966 4.9721 6.0889 7.2748 9.1805 4.895 6.5718 8.3085 12.69 10.305 16.49 2.1835 4.1573 2.9642 8.3483 5.5993 12.005 0.6793 0.94278 1.2877 1.4048 2.6 1.0312 2.0768-0.59107 4.1912-1.5654 6.4363-3.2035 2.3068-1.683 4.7232-4.048 6.6134-6.848-0.1446 4.3593-1.9804 7.6712-4.6217 11.605-5.2252 7.7823-12.843 14.854-12.843 14.854s8.0537-3.2905 10.797-5.2844c3.9248-2.8528 7.2667-6.0677 10.017-9.7181 0 0-0.68131 4.9173-1.3132 6.4382-3.2194 7.7482-6.3155 16.074-11.877 22.557-1.8463 2.1521-3.8416 2.6514-1.855 3.6092 3.0846 1.4872 4.2642 3.6867 6.4594 6.2804 3.5714 4.2197 5.7972 8.0139 8.9036 11.2 3.4868 3.5766 5.7431 5.1574 9.5908 7.4966 3.8618 2.3478 6.143 1.7324 8.9851 0.79464 1.1406-0.37641 5.7982-0.55419 9.4612-0.29842 9.3474 0.65281 18.649 2.7761 26.904 4.73 33.491 7.9265 68.402 13.959 98.852 25.108 3.8038 1.3926 8.2307 3.5175 11.668 5.0993 15.44 7.1061 5.5459 3.9862-2.6639 1.7413-6.5437-1.7895-16.901-5.7548-30.432-8.7608-30.493-6.7739-46.906-10.619-77.819-17.029-7.9006-1.6383-15.591-3.7336-23.896-4.0185-4.4292-0.15208-13.257-1.5446-15.995 2.7255-2.5144 3.9209-4.7 7.4007-7.5436 11.184-0.6456 0.8589-2.7375 3.3023-2.7381 3.764-0.00066 0.56777 2.0852 0.66384 7.2769 0.17793 3.9337-0.36818 7.8604-0.2482 11.656 0.51103 6.834 1.367 2.2176 1.0269-2.0506 2.2834-9.0512 2.6648-12.503 5.591-18.256 10.008-3.0845 2.3679-6.1802 5.1941-8.1132 7.0471 1.8332 1.1697 3.1632 2.6914 4.7533 4.2334 3.9027 3.7846 8.2766 7.5709 13.557 9.936 4.2927 1.9229 8.4096 3.7494 15.041 4.2633 3.0877 0.239 3.8584 0.4997 2.4964 1.0783-1.3423 0.56984-2.3448 1.0809-3.6156 1.4591-4.3967 1.3081-10.216 1.6282-14.788 1.4202-3.0528-0.13884-5.9343-0.30032-8.801-1.1427-2.251-0.66175 0.2374 0.72158 2.6151 2.119 2.6672 1.5675 5.6322 1.904 8.0645 3.464 2.2478 1.4416 1.7128 0.96825 3.7241 2.8128 5.8582 5.3724-2.0393 1.4259-4.3195 0.95858-2.537-0.52042-5.9905-0.94828-11.558-0.20665-4.9654 0.66305-10.095 0.80775-11.508 0.66305-4.2525-0.43534-7.4037-0.90119-9.7145-2.9282-2.566-2.2509-0.4225-0.51711 2.3144-0.1787 4.3508 0.53795 9.9289 0.21159 13.732-1.3778 1.3487-0.56367 3.1532-1.2381 3.0346-2.2633-0.1394-1.2054-7.4156-5.7772-9.3447-7.5828-1.3639-1.2766-2.2295-1.8951 0.022-1.3045 4.9142 1.2887 7.859 1.4416 10.222 1.7454 2.3828 0.30629 13.351 1.5794 12.512 1.4311-2.2181-0.39216-7.1087-2.0534-9.1562-3.6329-4.1-3.1624-5.8246-3.9714-8.2294-6.2568-2.188-2.0794-4.2561-4.2799-6.8727-5.5208-1.8094-0.85802-4.024-1.5165-5.7674-1.5748-2.8178-0.0949-3.9038-0.18424-2.4136-0.92181 1.8616-0.92114 3.9957-1.2139 5.8453-2.159 2.8735-1.4684 5.0543-2.9088 7.587-5.2615 1.5627-1.4516 4.2346-3.6183 5.8758-4.9774 3.1578-2.6151 6.7018-3.943 6.7018-3.943s-6.0395 0.47834-8.4305 0.58055c-8.3155 0.35548-13.119-2.1385-14.906-4.5739-0.94003-1.2812 1.2573 0.79902 6.4722 0.78868 5.5192-0.0109 6.4964-0.82304 9.1147-3.7994 3.5652-4.0528 4.2211-6.1587 6.7485-10.84 1.8561-3.4379 2.8617-2.6103 0.56143-3.9298-5.1759-2.9691-8.3468-6.5563-11.934-10.342-2.7826-2.937-5.0928-6.894-8.5918-10.938-2.815-3.2536-2.7157-3.3919-5.5141-5.2249-3.8289-2.5083-3.7452-1.0599-8.0308 0.77225-6.0675 2.5939-8.1857 1.9612-11.676 2.3728-3.7962 0.44767 1.5079-0.77094 5.5908-3.6762 6.0067-4.2742 9.65-6.2711 15.164-14.057 8.745-12.347 5.6673-7.1999-2.1179-3.3817-4.6069 2.2593-6.403 2.7857-11.163 4.5271-1.4306 0.52332-4.8485 1.579-7.5476 1.5402-1.1183-0.0161 1.4434-0.70752 4.2131-3.3196 4.2095-3.9699 6.6273-7.0206 9.1654-11.54 3.5756-6.367 4.6207-5.0918 1.5824-9.7938-1.2597-1.9495-3.5731-5.2451-4.5252-7.3815-3.0816-6.9158-8.7963-16.742-12.335-21.159-2.5827-3.2228-5.0021-7.1708-7.6609-10.459-2.5423-3.144-4.43-4.6545-7.6557-6.9639-1.8175-1.3013-5.4351-2.4988-7.0326-2.7246-1.8908-0.2673-2.9382-0.36276-0.49395-1.1985 2.284-0.78084 4.7849-1.4094 10.037-2.0104 4.2201-0.48303 9.0483 0.45373 9.0483 0.45373-1.8551-2.8415-11.548-9.3558-15.076-11.575-8.3104-5.2282-16.893-8.2249-24.199-10.47-12.592-3.8691-21.2-3.6916-21.2-3.6916s2.7986-2.8006 7.9012-4.4173c9.3925-2.9759 13.936-3.7001 19.807-3.4803 2.9264 0.10953-7.1353-2.2078-24.074-4.6652-6.4026-0.92884-12.363-2.0734-20.521-2.3762-15.744-0.58444-23.946-1.5914-39.5 0.96845-20.993 3.4547-24.362 4.9532-42.15 10.087-4.9162 1.4188-14.084 4.8954-17.207 7.2484-4.2119 3.1736-6.7621 7.7544-7.5626 9.6389-2.7298 6.4271-3.5526 8.6119-4.0146 10.779-1.0443 4.8976-2.1177 5.6067-1.1453-5.9366 0.55009-6.5302 5.6921-13.044-1.7929-1.5674-7.2746 11.153-9.2846 13.886-14.621 24.834-13.426 27.545-22.734 44.669-24.591 71.923-0.54576 8.0094-1.9992 17.181-2.3021 24.588-0.12968 3.171-0.15971 6.8798 0.71115 9.295 1.4412 3.9965 3.844 2.9867 9.2246-0.45724 3.0454-1.9493 6.3344-4.1311 7.9051-6.8971 5.3191-9.3663 7.2587-15.69 11.246-24.163 3.2165-6.8359 4.6785-10.685 6.4353-15.075 4.0967-10.238 10.835-16.482 15.918-25.71 3.0839-5.5982 7.4664-12.232 10.338-17.842 2.8287-5.5258 5.749-10.348 10.707-14.516 10.389-8.7321 10.452-9.6748 2.1827 2.6152-5.0306 7.4763-6.4625 10.855-8.4528 17.196-2.502 7.9711-3.3315 16.355-4.662 23.702-1.2885 7.1143-1.6954 10.37-3.0771 16.359-1.2054 5.2257-1.0167 12.525-1.7704 16.99-1.2498 7.4037-2.212 13.299-2.1072 20.584 0.0104 0.7191 0.96888 10.763 2.248 13.545 4.4064 0.60342 4.1774 0.17632 8.8667-1.205 4.063-1.1968 6.9694-3.4602 9.9028-5.34 3.3314-2.1352 8.0435-5.7562 8.0435-5.7562s0.25978-3.0523 0.7392-5.3198c1.3677-6.4689 4.9198-14.938 10.16-19.279 6.4291-5.3256 12.602-8.1564 20.209-10.101 5.1275-1.3109 13.089-1.028 18.986-0.50071 9.829 0.87754 21.816 4.8201 30.008 3.4987 5.9433-0.95893 6.0136-1.9967 8.7709-3.5034 4.7724-2.6082 6.5465-7.3171 5.2758-1.9525-0.72504 3.0612-1.5839 3.0828-4.2336 9.34-5.2392 12.372-9.3854 11.577-6.3005 11.853 4.6442 0.4133 5.0427 0.33145 10.316-0.64735 5.9604-1.1062 9.1636-4.1696 13.489-7.1322 4.9698-3.4038 6.9238-9.502 4.7631-2.789-1.998 6.2074-6.4298 10.788-10.001 15.416-4.221 5.4697-8.5512 5.8419-7.3532 6.2136 3.2619 1.0124 5.0008 0.67412 7.5752 0.055 2.1222-0.50814 3.5131-0.47849 8.7977-3.4978 4.1388-2.3636 8.6108-5.9118 11.168-8.854 0.50314-0.57879-0.10211 3.6266-1.4148 6.3517-6.1663 12.801-15.949 24.384-23.856 32.105-8.7995 8.5929-11.829 11.258-19.789 13.768 5.0438 4.6218 8.8709 10.376 10.897 16.428-4.4116-0.55267-4.1084-0.40928-6.3295-0.47647-7.6522-0.23344 1.0115 2.0618 6.4532 8.9146 0.79885 1.0061 6.0039 9.3122 4.9011 9.5611-5.024 1.1341-11.015 0.98568-16.038 0.78705-1.1246-0.0454-1.6792 0.0849-1.679 0.41229 3.3247 4.5145 6.892 9.3897 9.0396 13.936 0 0-4.6358 1.6645-7.5852 1.853-12.693 0.81121-27.272 1.1623-38.985-3.038-16.763-6.011-27.13-11.89-35.854-16.834-5.7138-3.2383-5.8271-5.318-19.271-0.4128-16.538 6.0338-25.389 10.31-35.02 17.687-3.1724 2.4299-6.0162 6.3086-8.5511 9.3969-3.6382 4.4328-4.2408 5.409-8.1246 8.1796-3.5753 2.5506-3.2232 1.4003-3.1612 2.835 0.09525 2.2053 0.54887 4.7736 1.0343 6.6615 2.2961 8.9292 3.6368 19.037 6.3843 26.583 3.523 9.6753 5.1731 14.128 8.8909 22.592 2.6987 6.1439 5.734 12.58 8.3929 16.963 4.8007 7.9135 8.024 16.815 9.9506 20.622 1.4967 2.9579 7.2363 8.9978 8.8129 10.964 1.1974 1.4931 6.5527 8.1172 6.8916 6.3043 1.3091-7.0047-0.38296-11.764-0.75819-16-0.80024-9.0357-0.19346-19.034 0.26916-22.716 0.37664-2.9979 0.76799-4.5856 1.1811-6.8644 0.59994-3.3091 2.1668-4.6253 2.5587-0.96193 0.4576 4.2776 3.1147 8.7914 6.0848 15.737 3.438 8.0395 5.1739 13.803 12.261 23.099 4.9831 6.5362 10.205 19.205 13.059 30.781 1.8211 7.3878-2.27-3.4214-3.1314-4.9963-7.4482-13.617-3.2562-9.9831-15.197-21.863-6.4111-6.3782-8.6408-16.099-7.2921-0.31073 1.5141 17.724 0.65806 11.245 0.6741 24.184 0.004 3.5326 0.0968 10.695-0.76884 6.7187-0.88195-4.0514-4.8257-11.562-12.055-18.422-13.48-12.792-21.095-23.024-23.926-30.922-9.2144-25.705-10.612 0.65625-11.194 16.604-0.67378 18.464 0.47115 32.055 0.65246 44.975 0.07838 5.5965 1.0629 19.975 1.6679 26.053 1.7991 18.073 7.5598 44.891-0.34436 9.9211zm-36.696-179.16c2.8903-3.8116 5.9534-6.99 7.8377-9.2549 3.8108-4.5807 5.5259-6.5324 8.9314-10.866 2.4449-3.111 5.6902-7.0704 8.508-9.3532 3.5848-2.9042 6.5999-6.6675 10.019-9.3919 7.7196-6.1508 12.719-9.3272 21.372-14.526 12.96-7.7867 23.416-13.021 37.419-16.699 5.0177-1.3178 8.1468-2.049 12.482-5.7559 2.7333-2.3369 4.8868-4.8298 7.7318-6.6728-0.31757-2.0254-0.49357-3.7342-2.6599-6.5977-2.5023-3.308-3.3711-2.9398-8.5338-6.1709-3.1325-1.9606-4.6402-3.4278-7.0431-8.2358-0.98369-1.9682-1.2012-3.5787-1.2012-3.5787s-3.4393 2.4277-4.9912 3.5356c-4.6249 3.3013-9.7858 7.3323-14.281 9.6169-4.2393 2.1548-7.7926 1.7881-12.888 3.9482-3.7819 1.6032-3.4116 0.35924-3.6189-1.3552-0.50696-4.1936 0.60238-8.1745-0.1793-12.202-1.8076-9.3141-0.85717-16.638 0.49836-27.532 0.62851-5.0514 0.69882-7.9941 1.6033-16.417 1.4801-13.782 3.6568-18.021 2.4787-16.732-3.3874 3.7083-6.6203 7.5827-8.9476 12.113-2.5374 4.9395-2.8712 5.7587-6.673 14.917-5.2669 12.688-8.7043 19.395-12.419 31.797-1.2709 4.2428-1.3883 6.4583-4.6816 9.5734-0.93257-1.702-2.2775-3.2331-3.6807-3.8515-2.3532-1.0373-5.8031 1.9842-8.3174 3.0071-7.6583 3.1157-6.0022 3.8922-7.0282 6.1341-2.0476 4.474-4.2312 12.942-4.5728 17.708-0.43978 6.1361-0.58478 10.7-0.37344 11.752 2.9845 2.198 6.1688 4.3919 8.9904 6.6159-5.0557 3.7031-7.3932 4.9938-10.191 10.846-1.7422 3.6442-2.7876 7.4492-3.9689 11.082-2.0673 6.3584-2.8041 11.53-3.5486 20.938-0.85536 10.811-0.38632 9.4618-0.35485 11.31 0.05623 3.3016 0.08751 3.1912 2.2823 0.29678zm34.89-41.136c-0.27881-0.11167-1.037-1.2536-1.6847-2.5367-1.4333-2.7016-4.9805-5.2155-7.4502-5.6438-1.9306-0.33601-5.4145-3.3098-5.4145-3.3098s3.6156 1.1885 5.6995 1.1257c3.6897-0.11116 4.091-0.59866 5.5771-2.2891 5.2782-6.0045 8.6106-9.797 13.075-14.549 1.5893-1.6916 3.0016-1.0177 1.4626 0.69833-0.94164 1.0499-2.522 3.1064-3.6442 4.8577-2.2325 3.484-3.6617 5.8913-5.0961 9.3362-1.0409 2.514-1.2974 4.8044-1.0546 9.4167 0.15826 3.0088-0.06863 3.4571-1.47 2.8944zm-18.961 33.652c3.1427-1.6711 6.7022-3.6511 8.7718-5.6348 1.0073-0.96557 3.6907-3.6812 4.6394-4.9169 2.31-3.0084 4.2294-6.1016 5.8637-9.0716 1.3072-2.3754 3.6324-8.6352 3.7884-10.63-4.501 4.6865-7.2067 7.0102-10.668 10.004-3.7566 3.2496-6.5655 6.2151-9.6444 10.538-1.3408 1.8828-4.438 5.329-6.1561 7.8118-0.61742 0.89275-1.8497 2.2235-2.1895 3.4023 0.79357-0.12075 3.0868-0.17077 5.5944-1.5039zm109.37-90.83c6.2406-2.4265 12.622-7.1595 15.366-11.513 2.051-3.2539 4.4449-8.638 6.274-12.775 1.9191-4.3408 2.9932-6.4379 3.8867-13.412-2.2818 2.7742-3.8852 4.0957-6.1273 6.1142 0.24197 1.2334 1.7389 1.5655 2.7544 0.73526-0.8717 1.2728-2.6666 0.84166-3.3162-0.21979l-1.2747 1.1318c-0.0349 1.74 2.5839 2.0849 3.835 1.1196-1.2658 1.5338-4.0144 0.94174-4.5058-0.61167l-1.4077 1.1257c0.34776 2.2713 3.3594 2.8478 5.0644 1.8815-0.93467 1.3031-4.6924 1.2661-5.7156-1.3482l-1.4864 1.1076c0.25666 2.8523 4.4199 3.8248 6.3607 2.7384-1.7677 1.5748-6.299 1.0394-7.3825-2.0584l-1.7016 1.2299c0.0849 3.1439 4.1964 4.801 7.49 3.2863-2.2677 1.9051-7.0785 1.6001-8.6985-2.3904l-1.5232 0.91923c1.2465 17.614-18.504 25.867-30.831 15.987l-2.5464 0.93525c1.1514 2.7919 3.7351 4.6199 5.8157 5.6196 4.1358 1.9873 14.201 2.5223 19.67 0.39664zm-16.246-13.657c6.7976-3.2965 9.6978-4.82 17.525-9.0864 4.1014-2.2355 4.4965-2.3901 8.9263-5.3033 5.9942-3.9419 9.5146-7.2621 13.852-11.37-3.302-1.7185-8.418-3.4818-15.716-2.8132-10.689 0.97889-14.199 2.5936-20.838 7.0635-6.5239 4.3928-9.2615 8.2817-12.089 15.271-1.5255 3.7716-2.0132 6.5949-2.2153 11.388 3.8866-1.4221 7.4612-3.6501 10.554-5.15z"/>
</svg>
